<svg width="25" height="38" viewBox="0 0 25 38" fill="none" xmlns="http://www.w3.org/2000/svg">
<path d="M21 0H4C1.79086 0 0 1.79086 0 3.99999V21.9443C0 22.8996 0.341837 23.8232 0.96368 24.5483L10.9818 36.2298C11.78 37.1605 13.22 37.1605 14.0182 36.2298L24.0363 24.5483C24.6582 23.8232 25 22.8996 25 21.9443V4C25 1.79086 23.2091 0 21 0Z" fill="#1E1E1E"/>
<path d="M5 9C5 8.44772 5.44772 8 6 8H19C19.5523 8 20 8.44772 20 9V20C20 20.5523 19.5523 21 19 21H6C5.44772 21 5 20.5523 5 20V9Z" fill="#FFBF2B"/>
<path d="M5.51437 7.93674L2.91332 11.337C2.41654 11.9864 2.39356 12.9948 3.09916 13.6136C3.60972 14.0612 4.18946 14.4017 4.88053 14.3294C5.4637 14.2683 5.95952 13.9244 6.40537 13.5184C7.10448 14.1482 7.80869 14.4695 8.58216 14.3487C9.23727 14.2464 9.8037 13.8303 10.2841 13.4443C11.0823 14.1018 11.8309 14.4123 12.6013 14.2919C13.2448 14.1912 13.7686 13.7932 14.1765 13.4556C14.3682 13.6308 14.5666 13.8036 14.767 13.9487C15.0264 14.1366 15.3389 14.3158 15.705 14.3859C16.4769 14.5337 17.1327 14.1522 17.7217 13.5148C18.3357 13.992 18.9305 14.353 19.5658 14.3949C20.318 14.4446 20.9048 14.0433 21.4251 13.5763L20.9241 13.0182L21.4251 13.5763C22.0757 12.9923 22.128 12.048 21.6894 11.3762L19.5137 8.04339C19.1906 7.54841 18.6394 7.25 18.0483 7.25H6.90433C6.35935 7.25 5.84549 7.50389 5.51437 7.93674Z" fill="#FFBF2B" stroke="#1E1E1E" stroke-width="1.5"/>
</svg>
